<!-- icon666.com - MILLIONS vector ICONS FREE --><svg version="1.1" id="Capa_1" xmlns="http://www.w3.org/2000/svg" xmlns:xlink="http://www.w3.org/1999/xlink" x="0px" y="0px" viewBox="0 0 512 512" style="enable-background:new 0 0 512 512;" xml:space="preserve"><polygon style="fill:#768BA0;" points="360.696,456.373 360.696,488.432 152.309,488.432 152.309,456.373 176.354,456.373 336.652,456.373 "></polygon><path style="fill:#D0D7DF;" d="M504.965,23.568v352.656H320.622l16.03,80.149H176.354l16.03-80.149H8.04V23.568H504.965z M472.906,344.165V55.627H40.1v288.537H472.906z"></path><rect x="40.1" y="55.627" style="fill:#49AAEE;" width="432.809" height="288.539"></rect><polygon style="fill:#D0D7DF;" points="200.399,111.731 224.444,143.791 176.354,143.791 "></polygon><rect x="176.35" y="143.787" style="fill:#F1F2F2;" width="48.09" height="24.045"></rect><rect x="256.499" y="103.717" style="fill:#FED049;" width="80.15" height="200.369"></rect><rect x="176.35" y="167.837" style="fill:#A4B0C0;" width="48.09" height="136.25"></rect><rect x="256.499" y="103.717" style="fill:#F6B445;" width="40.075" height="200.369"></rect><rect x="176.35" y="167.837" style="fill:#768BA0;" width="24.045" height="136.25"></rect><rect x="176.35" y="143.787" style="fill:#D0D7DF;" width="24.045" height="24.045"></rect><g><polygon style="fill:#231F20;" points="479.941,48.09 32.06,48.09 32.06,351.702 143.791,351.702 143.791,336.627 47.135,336.627 47.135,63.165 464.866,63.165 464.866,336.627 167.836,336.627 167.836,351.702 479.941,351.702 "></polygon><path style="fill:#231F20;" d="M512,16.03H360.194v15.075h136.731v337.581H310.926l16.03,80.149h-141.91l16.03-80.149H15.075 V31.105H336.15V16.03H0v367.731h182.686l-13.015,65.074h-25.403v32.06h-16.507v15.075h256.477v-15.075h-16.507v-32.06h-25.403 l-13.015-65.074H512L512,16.03L512,16.03z M352.656,463.91v16.985H159.344V463.91H352.656z"></path><polygon style="fill:#231F20;" points="263.538,432.329 263.538,383.761 288.06,383.761 288.06,368.686 223.941,368.686 223.941,383.761 248.462,383.761 248.462,432.329 "></polygon><path style="fill:#231F20;" d="M135.776,296.552v15.075h240.447v-15.075H263.538v-16.985h32.537v-15.075h-32.537v-16.985h32.537 v-15.075h-32.537v-16.985h32.537v-15.075h-32.537v-16.984h32.537v-15.075h-32.537v-16.985h32.537v-15.075h-32.537v-25h65.075 V272.03h15.075V96.179h-95.225v200.374h-16.984V136.254h-3.769l-27.814-37.085l-27.814,37.085h-3.769V272.03h15.075v-96.656h33.015 v121.178H135.776z M199.896,124.294l8.97,11.96h-17.939L199.896,124.294z M183.389,160.299v-8.97h33.015v8.97H183.389z"></path></g><polygon style="fill:#FFFFFF;" points="79.195,95.224 103.717,95.224 103.717,80.149 64.12,80.149 64.12,167.836 79.195,167.836 "></polygon><g><rect x="64.12" y="183.867" style="fill:#231F20;" width="15.075" height="16.03"></rect><rect x="432.327" y="304.569" style="fill:#231F20;" width="16.03" height="15.075"></rect></g><g><rect x="432.327" y="272.509" style="fill:#FFFFFF;" width="16.03" height="15.075"></rect><rect x="432.327" y="240.449" style="fill:#FFFFFF;" width="16.03" height="15.075"></rect></g></svg>